<svg width="920" height="721" viewBox="0 0 920 721" fill="none" xmlns="http://www.w3.org/2000/svg">
<g id="anim">
<path id="leaf-bg" d="M420.683 598.997L381.993 449.322C352.912 336.822 406.267 222.541 504.455 169.934C565.577 137.186 624.859 101.141 680.833 60.2679L695.062 49.8775L714.983 91.0362C739.563 141.821 755.654 193.802 761.171 244.301C781.535 430.69 668.636 533.525 420.683 598.997Z" fill="#3D5A80"/>
<path id="leaf-bg_2" d="M421.574 599.006L404.941 504.004C392.44 432.598 332.634 381.434 263.265 376.865C220.083 374.02 177.095 368.828 134.741 360.041L123.975 357.807L123.274 386.324C122.41 421.512 126.678 455.189 136.572 485.299C173.092 596.432 263.781 625.742 421.574 599.006Z" fill="#5762D5"/>
<g id="leaf-left">
<path id="leaf-2" d="M120.597 519.606L112.609 496.663C161.049 532.323 228 526.657 277.235 541.819C363.337 568.335 421.705 599.014 421.705 599.014L390.855 617.439C253.737 699.334 159.254 630.632 120.597 519.606Z" fill="#3D5A80"/>
<path id="leaf-1" d="M113.083 496.841L122.306 495.366C145.029 491.731 167.529 486.895 189.809 481.135C203.098 477.7 216.309 473.936 229.444 469.902C285.921 452.557 348.747 475.302 380.053 528.52L421.704 599.325C421.704 599.325 246.041 595 113.083 496.841Z" fill="#7EADC9"/>
</g>
<g id="anteater">
<path id="tongue" d="M143.623 330.443C101.201 352.915 21.4669 336.06 5.11133 324.824" stroke="#EDCAD0" stroke-width="10" stroke-linecap="round"/>
<path id="claw" d="M282.378 520.449L294.42 499.634L282.48 492.745C276.865 491.407 273.326 490.601 271.904 490.256C262.719 488 253.263 492.147 248.562 500.275C248.521 500.346 248.438 500.488 248.273 500.774L269.151 512.818L282.378 520.449Z" fill="#444444"/>
<path id="body" d="M418.647 434.577C410.34 430.64 400.482 432.845 394.658 439.943C378.607 459.778 343.19 503.524 327.859 522.443C320.152 531.974 306.618 534.434 295.965 528.288L269.796 513.191L331.451 406.616C339.535 392.643 333.321 374.701 318.255 368.766C303.444 362.884 298.997 361.175 287.038 356.462C258.857 345.338 228.603 340.435 198.322 342.172C187.281 342.737 173.137 343.543 155.645 344.539L155.502 344.547L154.873 344.583C147.151 345.073 139.796 341.304 135.593 334.887C134.301 333 136.509 336.271 135.013 334.077C131.829 329.196 132.807 322.725 137.346 319.163C156.307 303.86 154.284 305.545 160.539 300.502C206.967 263.107 264.518 241.924 324.232 240.244C338.567 239.861 312.007 240.607 331.973 240.05C373.872 238.836 415.389 248.336 452.628 267.538C485 284.23 513 298.5 534 321L459 455L418.647 434.577Z" fill="#AB8974"/>
<path id="eye" d="M329.269 288.407C325.805 294.396 327.72 301.966 333.511 305.307C339.302 308.648 346.826 306.523 350.29 300.534C353.795 294.475 351.881 286.905 346.089 283.564C340.298 280.223 332.775 282.348 329.269 288.407Z" fill="#444444"/>
</g>
<g id="leaf-right">
<path id="Vector" d="M901.056 259.887L900.126 214.219C837.928 309.11 715.932 343.573 638.89 402.927C504.16 506.725 421.157 599.44 421.157 599.44L487.74 611.385C783.68 664.477 905.556 480.891 901.056 259.887Z" fill="#5762D5"/>
<path id="Vector_2" d="M900.126 214.219L882.841 217.759C840.252 226.482 797.272 232.945 754.074 237.639L754.074 237.64C728.309 240.441 702.468 242.612 676.584 244.258C565.288 251.336 469.016 333.063 448.48 447.365L421.157 599.441C421.158 599.441 729.156 475.054 900.126 214.219V214.219Z" fill="#7EADC9"/>
</g>
</g>
</svg>
