<?xml version="1.0" standalone="no"?>
<!DOCTYPE svg PUBLIC "-//W3C//DTD SVG 20010904//EN"
 "http://www.w3.org/TR/2001/REC-SVG-20010904/DTD/svg10.dtd">
<svg version="1.0" xmlns="http://www.w3.org/2000/svg"
 width="512.000000pt" height="512.000000pt" viewBox="0 0 512.000000 512.000000"
 preserveAspectRatio="xMidYMid meet">
<metadata>
Created by potrace 1.14, written by Peter Selinger 2001-2017
</metadata>
<g transform="translate(0.000000,512.000000) scale(0.100000,-0.100000)"
fill="#000000" stroke="none">
<path d="M609 5100 c-298 -73 -532 -313 -594 -610 -13 -62 -15 -315 -15 -1933
0 -1810 1 -1864 20 -1943 72 -302 311 -536 610 -599 62 -13 315 -15 1933 -15
1810 0 1864 1 1943 20 302 72 536 311 599 610 13 62 15 315 15 1933 0 1810 -1
1864 -20 1943 -72 302 -311 536 -610 599 -62 13 -314 15 -1938 14 -1787 0
-1870 -1 -1943 -19z m2671 -2013 l715 -373 0 -155 0 -154 -705 -368 c-388
-203 -712 -371 -720 -373 -8 -2 -337 164 -730 369 l-715 374 -2 154 -3 154
713 372 c391 204 717 372 722 372 6 1 332 -167 725 -372z"/>
<path d="M2175 2978 c-209 -110 -476 -248 -592 -308 -210 -107 -212 -109 -180
-119 17 -6 286 -144 596 -306 310 -162 569 -295 575 -295 18 1 1180 597 1184
608 1 5 -11 15 -28 21 -17 5 -257 127 -533 269 -276 143 -533 275 -572 295
l-70 34 -380 -199z"/>
</g>
</svg>
