<svg viewBox="0 0 100 100" fill="none" xmlns="http://www.w3.org/2000/svg">
    <path d="M29.1465 50C29.1465 61.5041 38.5048 70.8625 50.009 70.8625C61.5132 70.8625 70.8715 61.5041 70.8715 50C70.8715 38.4958 61.5132 29.1375 50.009 29.1375C38.5048 29.1375 29.1465 38.4958 29.1465 50ZM45.834 83.1666C45.834 80.9575 47.6248 79.1666 49.834 79.1666H50.1673C52.3765 79.1666 54.1673 80.9575 54.1673 83.1666V87.6666C54.1673 89.8758 52.3765 91.6666 50.1673 91.6666H49.834C47.6248 91.6666 45.834 89.8758 45.834 87.6666V83.1666ZM45.834 12.3333C45.834 10.1242 47.6248 8.33331 49.834 8.33331H50.1673C52.3765 8.33331 54.1673 10.1242 54.1673 12.3333V16.8333C54.1673 19.0425 52.3765 20.8333 50.1673 20.8333H49.834C47.6248 20.8333 45.834 19.0425 45.834 16.8333V12.3333ZM8.33398 49.8333C8.33398 47.6242 10.1248 45.8333 12.334 45.8333H16.834C19.0431 45.8333 20.834 47.6242 20.834 49.8333V50.1666C20.834 52.3758 19.0431 54.1666 16.834 54.1666H12.334C10.1248 54.1666 8.33398 52.3758 8.33398 50.1666V49.8333ZM79.1673 49.8333C79.1673 47.6242 80.9582 45.8333 83.1673 45.8333H87.6673C89.8765 45.8333 91.6673 47.6242 91.6673 49.8333V50.1666C91.6673 52.3758 89.8765 54.1666 87.6673 54.1666H83.1673C80.9582 54.1666 79.1673 52.3758 79.1673 50.1666V49.8333Z" fill="#FCBF49"/>
    <path d="M26.3158 79.5799C24.7537 81.142 22.221 81.142 20.6589 79.5799L20.4241 79.3451C18.862 77.783 18.862 75.2503 20.4241 73.6882L23.6048 70.5076C25.1669 68.9455 27.6995 68.9455 29.2616 70.5076L29.4964 70.7424C31.0585 72.3045 31.0585 74.8372 29.4964 76.3993L26.3158 79.5799Z" fill="#FCBF49"/>
    <path d="M70.5032 29.2618C68.9411 27.6997 68.9411 25.167 70.5032 23.6049L73.688 20.4201C75.2501 18.858 77.7828 18.858 79.3449 20.4201L79.5797 20.6549C81.1418 22.217 81.1418 24.7497 79.5797 26.3118L76.3949 29.4966C74.8328 31.0587 72.3001 31.0587 70.738 29.4966L70.5032 29.2618Z" fill="#FCBF49"/>
    <path d="M29.2623 29.5001C27.6999 31.0624 25.1668 31.0621 23.6048 29.4994L20.4238 26.3169C18.8619 24.7543 18.8627 22.2214 20.4255 20.6597L20.6618 20.4236C22.2246 18.8619 24.7575 18.863 26.319 20.4259L29.4991 23.6091C31.0599 25.1714 31.0594 27.703 29.4978 29.2646L29.2623 29.5001Z" fill="#FCBF49"/>
    <path d="M79.5797 73.6882C81.1418 75.2503 81.1418 77.783 79.5797 79.3451L79.3449 79.5799C77.7828 81.142 75.2501 81.142 73.688 79.5799L70.5032 76.3951C68.9411 74.833 68.9411 72.3003 70.5032 70.7382L70.738 70.5034C72.3001 68.9413 74.8328 68.9413 76.3949 70.5034L79.5797 73.6882Z" fill="#FCBF49"/>
</svg>
