<svg viewBox="0 0 83 83" fill="none" xmlns="http://www.w3.org/2000/svg">
    <path d="M80.27 80.27C77.07 83.47 71.7361 83.47 68.5361 80.27L41.335 53.0689L14.1339 80.27C10.9339 83.47 5.60003 83.47 2.40001 80.27C-0.800005 77.07 -0.800005 71.7361 2.40001 68.5361L29.6011 41.335L2.40001 14.1339C-0.800005 10.9339 -0.800005 5.60003 2.40001 2.40001C5.60003 -0.800005 10.9339 -0.800005 14.1339 2.40001L41.335 29.6011L68.5361 2.40001C71.7361 -0.800005 77.07 -0.800005 80.27 2.40001C83.47 5.60003 83.47 10.9339 80.27 14.1339L53.0689 41.335L80.27 68.5361C83.47 71.7361 83.47 77.0696 80.27 80.27Z" fill="#E63946"/>
</svg>
