<svg width="325" height="346" viewBox="0 0 325 346" fill="none" xmlns="http://www.w3.org/2000/svg">
<path d="M142.205 319.984C142.205 312.66 144.402 306.557 148.797 301.674C153.354 296.628 160.027 294.105 168.816 294.105C177.605 294.105 184.279 296.628 188.836 301.674C193.393 306.557 195.672 312.66 195.672 319.984C195.672 327.309 193.393 333.412 188.836 338.295C184.279 343.015 177.605 345.375 168.816 345.375C160.027 345.375 153.354 343.015 148.797 338.295C144.402 333.412 142.205 327.309 142.205 319.984Z" fill="#212529"/>
<path d="M228.143 94.8867C228.143 112.628 221.307 129.229 207.635 144.691L205.866 146.514C204.297 148.131 204.373 150.726 206.035 152.248L230.866 175C232.472 176.472 234.966 176.389 236.44 174.785C261.019 148.043 273.309 120.922 273.309 93.4219C273.309 64.6133 264.682 41.9896 247.43 25.5508C230.34 8.94922 206.414 0.648438 175.652 0.648438C146.03 0.648438 121.941 8.78646 103.387 25.0625C86.9301 39.4803 83.6013 48.8629 79.1429 68.2291C78.2016 72.3179 80.6119 76.4373 84.6294 77.6474L112.277 85.975C115.807 87.0383 119.425 84.6869 120.196 81.0817C122.634 69.6861 127.162 60.7434 135.613 53.3828C145.704 44.5938 159.051 40.1992 175.652 40.1992C192.742 40.1992 205.763 45.082 214.715 54.8477C223.667 64.4505 228.143 77.7969 228.143 94.8867Z" fill="#212529"/>
<path d="M144.158 260.902H189.324C189.324 254.772 189.689 248.996 190.418 243.575C190.662 241.762 189.705 239.987 188.029 239.254L152.884 223.877C150.631 222.892 148.029 224.152 147.519 226.557C145.504 236.059 144.383 247.508 144.158 260.902Z" fill="#212529"/>
<path d="M229.588 238.113C247.259 264.32 300.922 280.59 314.622 279.585" stroke="#EDCAD0" stroke-width="4" stroke-linecap="round"/>
<path d="M80.5951 299.494L80.5752 283.996H90.1218C93.953 285.057 96.3548 285.748 97.3271 286.013C103.618 287.712 107.855 293.072 107.862 299.123C107.863 299.176 107.863 299.282 107.863 299.494H91.1706H80.5951Z" fill="#444444"/>
<path d="M28.5696 207.671C34.9155 208.149 40.066 212.555 41.1025 218.393C43.8672 234.635 49.9727 270.462 52.6222 285.96C53.947 293.763 61.2144 299.495 69.732 299.495H90.6544L90.5526 220.145C90.5392 209.741 100.476 201.726 111.568 203.265C122.488 204.752 125.747 205.23 134.552 206.451C155.306 209.316 175.152 216.323 192.715 227.045C199.135 230.911 207.33 235.909 217.461 242.089L217.58 242.161L217.945 242.384C222.407 245.144 228.124 245.409 232.866 243.18C234.294 242.543 231.837 243.658 233.494 242.915C237.093 241.216 238.746 237.288 237.255 233.838C231.177 219.189 231.808 220.781 229.801 215.951C214.892 180.124 187.7 149.764 152.461 129.594C143.994 124.764 159.669 133.734 147.884 126.994C123.171 112.822 94.978 104.754 65.9934 103.48C43.7219 102.502 27.3897 102.097 8.80481 103.038C4.60598 103.251 1.34991 106.743 1.34992 110.947L1.35013 199.749C1.35013 203.496 4.30156 206.583 8.04554 206.751L28.5696 207.671Z" fill="#AB8974"/>
<path d="M132.771 154.859C132.777 159.317 129.008 162.927 124.378 162.927C119.748 162.927 115.97 159.317 115.965 154.859C115.959 150.347 119.727 146.738 124.357 146.738C128.988 146.738 132.765 150.347 132.771 154.859Z" fill="#444444"/>
</svg>
