<svg viewBox="0 0 53 60" fill="none" xmlns="http://www.w3.org/2000/svg">
    <path d="M46.4317 0H6.16114C2.76501 0 0 2.75995 0 6.18004V46.74C0 50.1601 2.76481 52.9201 6.16093 52.9201H40.2409L38.648 47.37L42.4948 50.94L46.1311 54.3001L52.5926 60V6.18004C52.5926 2.75995 49.8278 0 46.4317 0ZM34.8313 39.1802C34.8313 39.1802 33.7494 37.8901 32.8478 36.7501C36.7848 35.64 38.2874 33.18 38.2874 33.18C37.0552 33.9901 35.8831 34.5602 34.8313 34.9499C33.3287 35.5801 31.8861 35.9999 30.4737 36.24C27.5885 36.78 24.9439 36.6301 22.69 36.2101C20.9768 35.8799 19.5043 35.4 18.2722 34.9201C17.5809 34.65 16.8296 34.3201 16.0781 33.9001C15.9881 33.84 15.898 33.81 15.8078 33.75C15.7478 33.72 15.7176 33.6901 15.6876 33.6601C15.1467 33.3601 14.8461 33.1501 14.8461 33.1501C14.8461 33.1501 16.2887 35.5501 20.1054 36.69C19.2039 37.8302 18.0919 39.18 18.0919 39.18C11.45 38.97 8.92574 34.6201 8.92574 34.6201C8.92574 24.9601 13.2533 17.13 13.2533 17.13C17.5809 13.89 21.6981 13.98 21.6981 13.98L21.9987 14.3401C16.5893 15.8997 14.0948 18.27 14.0948 18.27C14.0948 18.27 14.7559 17.9101 15.8678 17.4001C19.0835 15.99 21.6382 15.6001 22.69 15.5101C22.8702 15.4799 23.0206 15.45 23.2009 15.45C25.2149 15.1881 27.253 15.168 29.2717 15.3901C32.1265 15.7201 35.192 16.5601 38.3174 18.27C38.3174 18.27 35.9433 16.0201 30.8343 14.4601L31.255 13.9802C31.255 13.9802 35.3722 13.89 39.6998 17.1302C39.6998 17.1302 44.0276 24.9601 44.0276 34.6201C44.0276 34.6201 41.473 38.9702 34.8313 39.1802ZM20.8567 25.1701C19.1437 25.1701 17.7915 26.67 17.7915 28.5C17.7915 30.3301 19.1737 31.83 20.8567 31.83C22.5698 31.83 23.922 30.3301 23.922 28.5C23.9522 26.67 22.5696 25.1701 20.8567 25.1701ZM31.8261 25.1701C30.113 25.1701 28.7605 26.67 28.7605 28.5C28.7605 30.3301 30.1432 31.83 31.8261 31.83C33.5391 31.83 34.8913 30.3301 34.8913 28.5C34.8913 26.67 33.5391 25.1701 31.8261 25.1701Z" fill="#7289DA"/>
</svg>
