<svg viewBox="0 0 250 250" fill="none" xmlns="http://www.w3.org/2000/svg">
<path d="M222.222 41.6666H27.7776C24.094 41.6666 20.5613 43.1299 17.9566 45.7346C15.352 48.3393 13.8887 51.872 13.8887 55.5555V194.444C13.8887 198.128 15.352 201.661 17.9566 204.265C20.5613 206.87 24.094 208.333 27.7776 208.333H222.222C225.906 208.333 229.438 206.87 232.043 204.265C234.648 201.661 236.111 198.128 236.111 194.444V55.5555C236.111 51.872 234.648 48.3393 232.043 45.7346C229.438 43.1299 225.906 41.6666 222.222 41.6666V41.6666ZM211.528 194.444H39.3053L87.9165 144.167L77.9165 134.514L27.7776 186.389V66.1111L114.097 152.014C116.699 154.601 120.219 156.053 123.889 156.053C127.558 156.053 131.078 154.601 133.68 152.014L222.222 63.9583V185.486L171.111 134.375L161.319 144.167L211.528 194.444ZM36.8748 55.5555H210.972L123.889 142.153L36.8748 55.5555Z" fill="#EA4335"/>
</svg>
