<svg viewBox="0 0 60 59" fill="none" xmlns="http://www.w3.org/2000/svg">
    <path d="M30.0002 0C13.4337 0 0 13.3663 0 29.8549C0 43.0455 8.59594 54.2366 20.516 58.1841C22.0153 58.4605 22.5659 57.5364 22.5659 56.7479C22.5659 56.036 22.5377 53.6843 22.5251 51.1898C14.179 52.9955 12.4179 47.6671 12.4179 47.6671C11.0531 44.2164 9.08672 43.2986 9.08672 43.2986C6.36492 41.4457 9.29203 41.484 9.29203 41.484C12.3045 41.6943 13.8907 44.5604 13.8907 44.5604C16.5666 49.1244 20.9091 47.805 22.6209 47.0421C22.8902 45.1127 23.6677 43.7954 24.5257 43.0499C17.8622 42.2952 10.8574 39.7351 10.8574 28.2957C10.8574 25.0362 12.0293 22.3728 13.9484 20.282C13.6369 19.5301 12.6101 16.4938 14.239 12.3813C14.239 12.3813 16.7583 11.5789 22.4913 15.4416C24.8843 14.7801 27.4507 14.4485 30.0002 14.4371C32.5498 14.4485 35.1183 14.7799 37.5157 15.4416C43.2417 11.5792 45.7575 12.3815 45.7575 12.3815C47.3904 16.4935 46.3631 19.5303 46.0516 20.282C47.9752 22.3728 49.1391 25.0362 49.1391 28.2957C49.1391 39.7624 42.1209 42.2872 35.4405 43.0264C36.5166 43.9528 37.4754 45.7697 37.4754 48.5551C37.4754 52.5495 37.4407 55.7645 37.4407 56.7479C37.4407 57.5425 37.9807 58.4734 39.5013 58.1799C51.4148 54.2282 60 43.0413 60 29.8551C60 13.3663 46.5682 0 30.0002 0ZM11.2362 42.5289C11.1701 42.6772 10.9355 42.7218 10.722 42.6198C10.5042 42.5226 10.3821 42.3204 10.4524 42.1716C10.5171 42.0188 10.7522 41.9761 10.9692 42.0785C11.1872 42.176 11.3114 42.3801 11.2362 42.5289ZM12.7118 43.8392C12.5688 43.9712 12.289 43.9099 12.0991 43.7014C11.903 43.4933 11.8662 43.2148 12.0113 43.081C12.1589 42.9489 12.4301 43.0108 12.6267 43.2188C12.8231 43.4294 12.8611 43.7058 12.7118 43.8392ZM13.7243 45.5157C13.5403 45.6429 13.2398 45.5237 13.054 45.2582C12.8702 44.9928 12.8702 44.6744 13.058 44.5469C13.2443 44.4193 13.5403 44.534 13.7285 44.7976C13.9118 45.0675 13.9118 45.3858 13.7241 45.516L13.7243 45.5157ZM15.4362 47.4575C15.2719 47.638 14.9215 47.5895 14.6651 47.3432C14.4028 47.1025 14.3299 46.761 14.4949 46.5805C14.6613 46.3995 15.0136 46.4503 15.2719 46.6948C15.532 46.935 15.6117 47.279 15.4362 47.4575ZM17.6491 48.1129C17.5765 48.3468 17.239 48.4532 16.8994 48.3538C16.56 48.2514 16.338 47.9776 16.4065 47.7413C16.477 47.5057 16.8159 47.3952 17.1581 47.5015C17.497 47.6032 17.7197 47.8752 17.6491 48.1131V48.1129ZM20.1673 48.3911C20.1757 48.6372 19.8877 48.8413 19.5309 48.8459C19.1723 48.8539 18.882 48.6547 18.878 48.4121C18.878 48.1637 19.1597 47.9615 19.5185 47.9554C19.8752 47.9484 20.1673 48.1462 20.1673 48.3911V48.3911ZM22.6411 48.2967C22.6837 48.5369 22.436 48.7837 22.0816 48.8494C21.7336 48.9126 21.4111 48.7643 21.3668 48.5262C21.3237 48.2799 21.5761 48.0331 21.9237 47.9694C22.2785 47.9081 22.5959 48.0525 22.6411 48.2967Z" fill="#161614"/>
</svg>
