<svg viewBox="0 0 256 256" fill="none" xmlns="http://www.w3.org/2000/svg">
<path d="M47.2162 217.608L29.2402 16H226.76L208.76 217.576L127.88 240L47.2162 217.608Z" fill="#F1662A"/>
<path d="M128 107.256H95.28L93.024 81.936H128V57.208H66L66.592 63.848L72.664 131.984H128V107.256V107.256Z" fill="white"/>
<path d="M128 171.472L127.888 171.504L100.352 164.072L98.5916 144.352H73.7676L77.2316 183.168L127.888 197.232L128 197.2V171.472Z" fill="white"/>
<path d="M127.912 107.256V131.984H158.36L155.496 164.056L127.912 171.496V197.224L178.608 183.168L178.976 178.992L184.784 113.896L185.392 107.256H127.912V107.256Z" fill="white"/>
<path d="M127.912 57.208V81.936H187.64L188.136 76.384L189.264 63.848L189.856 57.208H127.912V57.208Z" fill="white"/>
</svg>
