<svg viewBox="0 0 256 256" fill="none" xmlns="http://www.w3.org/2000/svg">
<path d="M150.192 157.6C152.674 162.631 156.525 166.86 161.303 169.801C166.08 172.741 171.59 174.275 177.2 174.224C188.544 174.224 195.792 168.552 195.792 160.72C195.792 151.336 188.344 148.008 175.864 142.544L169.016 139.608C149.264 131.192 136.136 120.648 136.136 98.36C136.136 77.824 151.784 62.2 176.232 62.2C184.167 61.6242 192.095 63.4003 199.026 67.3061C205.957 71.2119 211.583 77.0742 215.2 84.16L193.88 97.848C192.484 94.3368 190.053 91.3335 186.909 89.2372C183.765 87.1409 180.058 86.0509 176.28 86.112C174.633 85.9463 172.97 86.1256 171.397 86.6384C169.823 87.1513 168.373 87.9865 167.141 89.0907C165.908 90.1949 164.918 91.5439 164.236 93.0517C163.553 94.5595 163.192 96.193 163.176 97.848C163.176 106.064 168.264 109.384 179.976 114.472L186.824 117.4C210.088 127.376 223.216 137.544 223.216 160.408C223.216 185.056 203.856 198.56 177.848 198.56C167.718 199.204 157.617 196.904 148.765 191.935C139.913 186.967 132.687 179.543 127.96 170.56L150.192 157.6ZM53.4882 160C57.7922 167.632 61.7042 174.08 71.0882 174.08C80.0802 174.08 85.7602 170.56 85.7602 156.88V63.8H113.136V157.264C113.136 185.608 96.5122 198.512 72.2562 198.512C63.6881 198.976 55.1803 196.835 47.8522 192.371C40.524 187.908 34.7188 181.33 31.2002 173.504L53.4882 160Z" fill="#EEEEEE"/>
</svg>
