<svg viewBox="0 0 256 256" fill="none" xmlns="http://www.w3.org/2000/svg">
<path d="M128.384 255.525C124.863 255.525 121.577 254.586 118.525 252.943L87.3027 234.397C82.6079 231.815 84.9553 230.876 86.3638 230.407C92.7018 228.294 93.8755 227.824 100.448 224.068C101.153 223.598 102.092 223.833 102.796 224.303L126.741 238.623C127.68 239.092 128.854 239.092 129.558 238.623L223.224 184.396C224.163 183.926 224.632 182.987 224.632 181.814V73.5929C224.632 72.4192 224.163 71.4802 223.224 71.0108L129.558 17.0178C128.619 16.5483 127.445 16.5483 126.741 17.0178L33.075 71.0117C32.1361 71.4811 31.6666 72.6548 31.6666 73.5938V181.814C31.6666 182.753 32.1361 183.926 33.075 184.396L58.6635 199.184C72.5141 206.227 81.1986 198.011 81.1986 189.795V82.9825C81.1986 81.5741 82.3732 80.1656 84.0164 80.1656H95.989C97.3975 80.1656 98.8059 81.3394 98.8059 82.9825V189.794C98.8059 208.339 88.7112 219.137 71.1048 219.137C65.7057 219.137 61.4804 219.137 49.5086 213.269L24.8591 199.184C18.7558 195.662 15 189.09 15 182.047V73.8285C15 66.7863 18.7558 60.2136 24.8591 56.6916L118.525 2.46478C124.393 -0.821592 132.375 -0.821592 138.243 2.46478L231.909 56.6916C238.012 60.2127 241.768 66.7854 241.768 73.8285V182.048C241.768 189.091 238.012 195.663 231.909 199.184L138.243 253.413C135.192 254.821 131.67 255.526 128.384 255.526V255.525ZM157.258 181.108C116.177 181.108 107.726 162.329 107.726 146.366C107.726 144.958 108.9 143.549 110.543 143.549H122.749C124.158 143.549 125.332 144.488 125.332 145.897C127.21 158.338 132.609 164.442 157.493 164.442C177.212 164.442 185.663 159.982 185.663 149.419C185.663 143.314 183.316 138.854 152.563 135.802C126.976 133.22 111.012 127.586 111.012 107.163C111.012 88.1477 126.975 76.8802 153.737 76.8802C183.785 76.8802 198.574 87.2087 200.452 109.745C200.452 110.449 200.217 111.153 199.748 111.857C199.278 112.327 198.574 112.796 197.87 112.796H185.663C184.489 112.796 183.316 111.857 183.08 110.684C180.263 97.773 172.987 93.5476 153.737 93.5476C132.141 93.5476 129.558 101.059 129.558 106.693C129.558 113.501 132.609 115.613 161.718 119.369C190.593 123.125 204.208 128.525 204.208 148.713C203.973 169.371 187.072 181.108 157.258 181.108V181.108Z" fill="white"/>
</svg>
