<svg viewBox="0 0 256 256" fill="none" xmlns="http://www.w3.org/2000/svg">
<path d="M60.8 110.328C63.2668 110.018 65.7706 110.2 68.1667 110.863C70.5628 111.526 72.8038 112.658 74.76 114.192C76.0222 116.136 76.827 118.342 77.1139 120.642C77.4007 122.942 77.1621 125.277 76.416 127.472C75.7615 132.875 73.1486 137.85 69.072 141.456C64.1559 144.623 58.3446 146.108 52.512 145.688H41.312L48.192 110.4L60.8 110.328ZM16 181.416H34.4L38.76 159.016H54.496C60.2933 159.164 66.0786 158.416 71.648 156.8C76.2221 155.29 80.4031 152.781 83.888 149.456C89.9152 144.036 93.9774 136.773 95.44 128.8C96.5945 124.832 96.7977 120.648 96.0333 116.586C95.2688 112.525 93.5582 108.701 91.04 105.424C88.0041 102.415 84.348 100.106 80.3271 98.6563C76.3062 97.2068 72.0173 96.6525 67.76 97.032H32.456L16 181.416Z" fill="#EEEEEE"/>
<path d="M108.936 74.584H127.2L122.776 96.984H139.024C146.489 96.2024 153.988 98.0993 160.184 102.336C162.234 104.666 163.635 107.495 164.247 110.537C164.859 113.58 164.661 116.73 163.672 119.672L156.04 158.944H137.56L144.824 121.608C145.329 120.183 145.509 118.664 145.352 117.161C145.194 115.657 144.702 114.209 143.912 112.92C141.264 111.02 137.99 110.202 134.76 110.632H120.176L110.776 158.984H92.4717L108.936 74.584Z" fill="#EEEEEE"/>
<path d="M204.312 110.328C206.779 110.018 209.282 110.2 211.678 110.863C214.075 111.526 216.315 112.658 218.272 114.192C219.534 116.136 220.339 118.341 220.626 120.642C220.912 122.942 220.674 125.277 219.928 127.472C219.273 132.875 216.66 137.85 212.584 141.456C207.659 144.629 201.835 146.115 195.992 145.688H184.8L191.664 110.36L204.312 110.328ZM159.512 181.416H177.912L182.272 159.016H198.016C203.824 159.167 209.62 158.419 215.2 156.8C219.774 155.29 223.955 152.781 227.44 149.456C233.452 144.03 237.5 136.767 238.952 128.8C240.106 124.832 240.309 120.648 239.545 116.586C238.781 112.525 237.07 108.701 234.552 105.424C231.515 102.421 227.859 100.116 223.839 98.6709C219.82 97.2256 215.534 96.6745 211.28 97.0559H175.92L159.512 181.416Z" fill="#EEEEEE"/>
</svg>
