<svg viewBox="0 0 258 256" fill="none" xmlns="http://www.w3.org/2000/svg">
<path d="M127.417 0.0722656C62.3303 0.0722656 66.3942 28.2975 66.3942 28.2975L66.4665 57.5398H128.577V66.319H41.7971C41.7971 66.319 0.148438 61.5956 0.148438 127.267C0.148438 192.941 36.5004 190.612 36.5004 190.612H58.1952V160.137C58.1952 160.137 57.0256 123.785 93.9669 123.785H155.57C155.57 123.785 190.18 124.344 190.18 90.3349V34.1032C190.18 34.1032 195.436 0.0722656 127.417 0.0722656ZM93.1688 19.7371C94.6365 19.7358 96.0901 20.0239 97.4463 20.5849C98.8026 21.146 100.035 21.969 101.073 23.0068C102.111 24.0447 102.934 25.277 103.495 26.6332C104.056 27.9894 104.344 29.443 104.342 30.9107C104.344 32.3784 104.056 33.832 103.495 35.1883C102.934 36.5445 102.111 37.7768 101.073 38.8146C100.035 39.8525 98.8026 40.6755 97.4463 41.2365C96.0901 41.7976 94.6365 42.0857 93.1688 42.0844C91.7011 42.0857 90.2475 41.7976 88.8913 41.2365C87.535 40.6755 86.3027 39.8525 85.2649 38.8146C84.2271 37.7768 83.4041 36.5445 82.843 35.1883C82.282 33.832 81.9938 32.3784 81.9952 30.9107C81.9938 29.443 82.282 27.9894 82.843 26.6332C83.4041 25.277 84.2271 24.0447 85.2649 23.0068C86.3027 21.969 87.535 21.146 88.8913 20.5849C90.2475 20.0239 91.7011 19.7358 93.1688 19.7371V19.7371Z" fill="url(#paint0_linear)"/>
<path d="M129.265 255.123C194.351 255.123 190.287 226.897 190.287 226.897L190.215 197.656H128.103V188.877H214.883C214.883 188.877 256.532 193.6 256.532 127.927C256.532 62.2541 220.18 64.5832 220.18 64.5832H198.485V95.0573C198.485 95.0573 199.655 131.409 162.713 131.409H101.111C101.111 131.409 66.5004 130.85 66.5004 164.86V221.093C66.5004 221.093 61.2449 255.123 129.264 255.123H129.265ZM163.512 235.46C162.045 235.461 160.591 235.173 159.235 234.612C157.879 234.051 156.646 233.228 155.608 232.19C154.571 231.152 153.748 229.92 153.187 228.564C152.626 227.207 152.337 225.754 152.339 224.286C152.337 222.818 152.625 221.365 153.186 220.008C153.747 218.652 154.57 217.419 155.608 216.381C156.646 215.344 157.878 214.52 159.235 213.959C160.591 213.398 162.045 213.11 163.512 213.111C164.98 213.11 166.434 213.398 167.79 213.959C169.146 214.52 170.378 215.343 171.416 216.381C172.454 217.419 173.277 218.651 173.838 220.008C174.399 221.364 174.687 222.817 174.686 224.285C174.687 225.753 174.399 227.206 173.838 228.563C173.277 229.919 172.454 231.151 171.416 232.189C170.378 233.227 169.146 234.05 167.79 234.611C166.434 235.172 164.98 235.46 163.512 235.459V235.46Z" fill="url(#paint1_linear)"/>
<defs>
<linearGradient id="paint0_linear" x1="24.7868" y1="23.0125" x2="151.843" y2="148.801" gradientUnits="userSpaceOnUse">
<stop stop-color="#387EB8"/>
<stop offset="1" stop-color="#366994"/>
</linearGradient>
<linearGradient id="paint1_linear" x1="102.773" y1="103.786" x2="239.217" y2="232.771" gradientUnits="userSpaceOnUse">
<stop stop-color="#FFE052"/>
<stop offset="1" stop-color="#FFC331"/>
</linearGradient>
</defs>
</svg>
