<svg viewBox="0 0 256 256" fill="none" xmlns="http://www.w3.org/2000/svg">
<path d="M198.256 63.936C193.184 44.048 160.2 37.536 128.984 48.592C109.434 55.1612 91.3721 65.5216 75.8316 79.08C58.6396 95.16 55.8956 109.16 57.0236 115.008C61.0236 135.648 89.2876 149.136 100.912 159.144V159.2C97.4876 160.888 72.3996 173.6 66.5116 186.56C60.3196 200.256 67.4956 210.08 72.2556 211.4C79.4021 213.121 86.908 212.561 93.7202 209.799C100.532 207.037 106.309 202.212 110.24 196C113.488 190.967 115.52 185.248 116.176 179.294C116.831 173.34 116.092 167.315 114.016 161.696C119.615 160.273 125.435 159.939 131.16 160.712C150.808 163.008 154.664 175.272 153.928 180.408C153.581 182.236 152.846 183.968 151.77 185.487C150.695 187.005 149.305 188.275 147.696 189.208C146.32 190.064 145.896 190.352 146.016 190.992C146.184 191.912 146.816 191.88 147.992 191.68C150.944 190.75 153.546 188.948 155.454 186.51C157.362 184.072 158.486 181.114 158.68 178.024C159.152 166.024 147.624 152.536 127.208 152.88C121.278 152.711 115.361 153.522 109.696 155.28C109.412 154.956 109.124 154.636 108.832 154.32C96.2076 140.856 72.8796 131.328 73.8636 113.224C74.2236 106.64 76.5116 89.312 118.664 68.288C153.224 51.064 180.888 55.808 185.672 66.312C192.504 81.32 170.888 109.2 135 113.224C131.033 114.029 126.936 113.931 123.013 112.937C119.089 111.942 115.44 110.077 112.336 107.48C110.448 105.4 110.168 105.312 109.464 105.696C108.32 106.328 109.048 108.168 109.464 109.256C110.838 111.733 112.693 113.91 114.92 115.66C117.146 117.41 119.7 118.698 122.432 119.448C136.542 122.514 151.259 121.059 164.496 115.288C186.264 106.896 203.24 83.496 198.256 63.936V63.936ZM105.744 165.304C107.333 170.782 107.252 176.609 105.512 182.04C105.325 182.605 105.12 183.165 104.896 183.72C104.672 184.275 104.429 184.808 104.168 185.32C102.821 188.075 101.077 190.617 98.9916 192.864C92.4876 199.96 83.3916 202.648 79.4956 200.384C75.2876 197.944 77.3916 187.936 84.9356 179.96C90.7323 174.228 97.4154 169.468 104.728 165.864L105.744 165.304Z" fill="white"/>
</svg>
